Coordinates
version=1
nRows=17
nColumns=40
inDegrees=yes

Units are S.I. units (second, meters, Newtons, ...)
Angles are in degrees.

endheader
time	pelvis_tilt	pelvis_list	pelvis_rotation	pelvis_tx	pelvis_ty	pelvis_tz	hip_flexion_r	hip_adduction_r	hip_rotation_r	knee_angle_r	knee_angle_r_beta	ankle_angle_r	subtalar_angle_r	mtp_angle_r	hip_flexion_l	hip_adduction_l	hip_rotation_l	knee_angle_l	knee_angle_l_beta	ankle_angle_l	subtalar_angle_l	mtp_angle_l	lumbar_extension	lumbar_bending	lumbar_rotation	arm_flex_r	arm_add_r	arm_rot_r	elbow_flex_r	pro_sup_r	wrist_flex_r	wrist_dev_r	arm_flex_l	arm_add_l	arm_rot_l	elbow_flex_l	pro_sup_l	wrist_flex_l	wrist_dev_l
      1.95000000	      1.27104010	      3.05564011	      5.72241631	      0.78739935	      0.95941333	      1.16592787	     -3.68699879	     -1.56003138	    -21.66525294	    -14.01188127	     -0.24455346	      8.31520483	      1.96811952	    -14.81060368	     17.64206920	      3.22501504	     25.80591740	    -12.87792822	     -0.22476225	      1.66968820	      5.30058203	      8.85678723	     -5.82181092	     -3.59153993	      5.44274779	      9.45509174	    -14.73231172	     -8.57080747	     21.08816349	     89.95437384	      0.00000000	      0.00000000	     -8.62431879	     11.41268378	     15.69190500	      7.54175834	     89.95437384	      0.00000000	      0.00000000
      1.96000000	      1.19443255	      2.96616644	      5.80989844	      0.79384054	      0.95850101	      1.16558016	     -4.04966082	     -1.42452676	    -21.69866942	    -14.03822787	     -0.24501330	      8.59733790	      2.08379240	    -14.89633695	     18.00875970	      2.95398181	     25.75750876	    -11.07899612	     -0.19336496	      0.43521900	      3.86087962	      9.03818596	     -5.76977320	     -3.52867042	      5.50759147	      9.84987592	    -14.78910513	     -8.66640426	     21.53669173	     89.95437384	      0.00000000	      0.00000000	     -8.72133414	     11.55158685	     15.26897627	      6.93129760	     89.95437384	      0.00000000	      0.00000000
      1.97000000	      1.14166988	      2.80227050	      5.84484284	      0.80042230	      0.95745957	      1.16525125	     -4.44195767	     -1.22350491	    -21.90173329	    -14.02419243	     -0.24476833	      8.80843542	      2.05176868	    -14.92146793	     18.69400530	      2.92925470	     26.16894490	    -10.30320570	     -0.17982486	      0.30364915	      3.65864226	      9.06037822	     -5.73032002	     -3.38714693	      5.46444079	     10.39950047	    -14.74107276	     -8.72493107	     21.82040033	     89.95437384	      0.00000000	      0.00000000	     -8.99432259	     11.67388661	     15.07882023	      6.49354033	     89.95437384	      0.00000000	      0.00000000
      1.98000000	      1.54272363	      3.20071548	      5.64667922	      0.80756790	      0.95748805	      1.16501193	     -5.37553498	     -1.69626355	    -22.21117475	    -14.13360306	     -0.24667791	      9.17593011	      2.68699143	    -15.14790943	     18.22876836	      2.35064136	     27.22536917	     -8.48841913	     -0.14815086	     -1.79256969	      1.31108927	      9.16396507	     -6.15688754	     -3.81711023	      6.01379090	     10.51691414	    -14.71071248	     -9.53963229	     22.44394474	     89.95437384	      0.00000000	      0.00000000	     -9.08386500	     12.05819690	     12.23360265	      6.04780937	     89.95437384	      0.00000000	      0.00000000
      1.99000000	      1.44003544	      2.98361960	      5.66846358	      0.81417672	      0.95632842	      1.16458172	     -5.68217630	     -1.44680242	    -22.33557705	    -14.16364541	     -0.24720225	      9.35668853	      2.71521846	    -15.14080553	     18.90850011	      2.40224807	     27.35827789	     -7.99471420	     -0.13953409	     -2.05227486	      1.09910590	      9.17722134	     -6.05579859	     -3.63862339	      6.02845732	     10.96104330	    -14.65385823	     -9.58918522	     22.74010427	     89.95437384	      0.00000000	      0.00000000	     -9.31267252	     12.16381794	     12.00848225	      5.66303743	     89.95437384	      0.00000000	      0.00000000
      2.00000000	      1.35884342	      2.80032139	      5.68076874	      0.82071770	      0.95530973	      1.16434550	     -6.00704563	     -1.22073333	    -22.36611932	    -14.21159502	     -0.24803913	      9.66192580	      2.87803293	    -15.20026980	     19.44556980	      2.42800159	     27.15486372	     -7.37068969	     -0.12864280	     -3.22384721	      0.34705186	      9.34969559	     -5.99461660	     -3.51451184	      6.13511529	     11.28440976	    -14.55823604	     -9.82049652	     23.14216512	     89.95437384	      0.00000000	      0.00000000	     -9.24430710	     12.34055100	     11.18564342	      4.82609217	     89.95437384	      0.00000000	      0.00000000
      2.01000000	      1.30079945	      2.69192072	      5.56167899	      0.82753347	      0.95427408	      1.16402002	     -6.31445258	     -1.13450454	    -22.47755393	    -14.35476339	     -0.25053788	      9.76051697	      2.82016184	    -15.10909429	     20.00902326	      2.46579813	     27.17654027	     -7.25647955	     -0.12664946	     -3.39460910	      0.28077170	      9.30141945	     -5.92728204	     -3.47216968	      6.27345264	     11.59841494	    -14.45614539	     -9.91465139	     23.51564184	     89.95437384	      0.00000000	      0.00000000	     -9.57878988	     12.47861248	     10.94952521	      4.74161349	     89.95437384	      0.00000000	      0.00000000
      2.02000000	      1.43193689	      2.83358940	      5.37302663	      0.83487877	      0.95381032	      1.16368492	     -6.90381737	     -1.40584155	    -22.88792710	    -14.52396071	     -0.25349093	     10.13475444	      3.87473034	    -15.28351744	     20.18973058	      2.37347990	     27.77897181	     -7.14731734	     -0.12474422	     -4.58875514	     -0.90208508	      8.92900730	     -5.95105429	     -3.65333122	      7.10571284	     11.42296219	    -14.19828267	    -11.88330784	     24.07462421	     89.95437384	      0.00000000	      0.00000000	     -9.65338112	     12.97961421	      5.17224635	      4.46687077	     89.95437384	      0.00000000	      0.00000000
      2.03000000	      1.39509333	      2.63721054	      5.27581050	      0.84180144	      0.95283402	      1.16315526	     -7.28973336	     -1.21605474	    -22.85742381	    -14.57696549	     -0.25441604	     10.27920751	      4.00075140	    -15.22656011	     20.81411252	      2.57765132	     27.53198448	     -7.64980501	     -0.13351428	     -4.72063558	     -0.55486619	      8.75211155	     -5.88612046	     -3.48536364	      7.26545126	     11.55186178	    -14.19148273	    -11.62077363	     24.61349093	     89.95437384	      0.00000000	      0.00000000	     -9.82383704	     13.12722106	      4.38303955	      4.21307560	     89.95437384	      0.00000000	      0.00000000
      2.04000000	      1.40532731	      2.56859379	      5.12341767	      0.84884674	      0.95203255	      1.16258366	     -7.70327364	     -1.20399507	    -22.89167536	    -14.70740560	     -0.25669265	     10.43152307	      4.00927855	    -15.11391850	     21.32748691	      2.69935022	     27.38263085	     -8.23796996	     -0.14377970	     -5.11005001	     -0.10995555	      8.70873204	     -5.92162538	     -3.50420739	      7.41915566	     11.76371792	    -14.03408206	    -11.68884914	     25.00286652	     89.95437384	      0.00000000	      0.00000000	    -10.01469779	     13.26795268	      4.27849248	      4.06252082	     89.95437384	      0.00000000	      0.00000000
      2.05000000	      1.32548418	      2.55545879	      4.86393717	      0.85613327	      0.95110853	      1.16199147	     -7.95273831	     -1.31748263	    -22.75995433	    -15.01140038	     -0.26199836	     10.34151629	      3.89325643	    -14.88782249	     21.74407425	      2.75395637	     27.01199623	     -8.69997073	     -0.15184313	     -5.21636694	      0.02732399	      8.59450449	     -5.80035501	     -3.56796551	      7.59962266	     11.91792456	    -13.85310786	    -11.62476112	     25.41301321	     89.95437384	      0.00000000	      0.00000000	    -10.40360610	     13.39984769	      4.23486260	      4.20899247	     89.95437384	      0.00000000	      0.00000000
      2.06000000	      1.49570682	      2.50782557	      4.68916131	      0.86344992	      0.95065229	      1.16121536	     -8.70614522	     -1.30540268	    -22.75009991	    -14.81991828	     -0.25865637	     10.66686235	      4.37853592	    -14.88151986	     22.17326528	      2.94171352	     26.91685713	     -9.87830266	     -0.17240891	     -5.48905234	      1.29893317	      8.55864023	     -5.97785581	     -3.56613054	      7.91276965	     12.01140874	    -13.68871969	    -11.98083010	     25.76018120	     89.95437384	      0.00000000	      0.00000000	    -10.31978671	     13.53607618	      3.92153283	      3.82703830	     89.95437384	      0.00000000	      0.00000000
      2.07000000	      1.38272884	      2.49443458	      4.46401926	      0.87088162	      0.94974571	      1.16032946	     -8.91810866	     -1.44932436	    -22.59124163	    -15.15883961	     -0.26457166	     10.53912926	      4.24646037	    -14.64574797	     22.49783307	      2.96239090	     26.50921691	    -10.34260417	     -0.18051250	     -5.56883803	      1.38001092	      8.43806778	     -5.80448684	     -3.61049517	      8.09477103	     12.07077580	    -13.49382536	    -11.89293675	     26.12627369	     89.95437384	      0.00000000	      0.00000000	    -10.68496442	     13.67035040	      3.89023007	      4.03041967	     89.95437384	      0.00000000	      0.00000000
      2.08000000	      1.42339786	      2.58327215	      4.25172836	      0.87834668	      0.94919020	      1.15925146	     -9.51886521	     -1.65464478	    -22.60689451	    -15.04534729	     -0.26259085	     10.73006449	      4.38170395	    -14.55806654	     22.85380650	      2.99617783	     26.42268692	    -11.40451961	     -0.19904642	     -5.89003246	      2.13950896	      8.41544579	     -5.84913995	     -3.77151526	      8.36352277	     12.14411800	    -13.35390006	    -11.83721525	     26.34037747	     89.95437384	      0.00000000	      0.00000000	    -10.64714522	     13.80424044	      3.76191722	      3.81080255	     89.95437384	      0.00000000	      0.00000000
      2.09000000	      1.56318184	      2.58481126	      3.99249374	      0.88613545	      0.94874855	      1.15809684	    -10.19136893	     -1.81787139	    -22.68148339	    -15.02497444	     -0.26223527	     10.62880086	      5.22127601	    -14.59085429	     22.92612969	      3.03939419	     26.10710702	    -12.25287495	     -0.21385301	     -5.62313551	      3.08743572	      8.34555649	     -5.93176882	     -3.79292276	      8.61291614	     12.07615609	    -13.23499224	    -11.61685003	     26.81564353	     89.95437384	      0.00000000	      0.00000000	    -10.83618577	     13.91264751	      3.42021832	      3.80659053	     89.95437384	      0.00000000	      0.00000000
      2.10000000	      1.49428241	      2.69015470	      3.76955549	      0.89402729	      0.94805264	      1.15674931	    -10.61539801	     -2.09407020	    -22.65109923	    -15.10077077	     -0.26355817	     10.71769077	      5.25004531	    -14.47959435	     23.07841708	      2.95212132	     25.78326410	    -12.90313830	     -0.22520225	     -5.70185677	      3.29846837	      8.27312241	     -5.74603013	     -3.94647784	      8.89470812	     11.99372756	    -13.08333340	    -11.51955999	     27.03740549	     89.95437384	      0.00000000	      0.00000000	    -11.06845832	     14.05961120	      3.49076531	      3.99043887	     89.95437384	      0.00000000	      0.00000000
      2.11000000	      1.60436910	      2.80769859	      3.45581370	      0.90193009	      0.94766194	      1.15547706	    -11.23516911	     -2.41407724	    -22.74573418	    -15.13472517	     -0.26415079	     10.68470827	      5.72560029	    -14.46751283	     22.98952375	      2.89164031	     25.55372063	    -13.60459101	     -0.23744491	     -5.62606018	      3.66932001	      8.23466395	     -5.82848326	     -4.12715145	      9.08302864	     12.03584216	    -12.86180553	    -11.32992359	     27.24618169	     89.95437384	      0.00000000	      0.00000000	    -11.19053191	     14.14606237	      3.69248674	      3.96151087	     89.95437384	      0.00000000	      0.00000000
